<svg width="376" height="338" fill="none" xmlns="http://www.w3.org/2000/svg"><path fill-rule="evenodd" clip-rule="evenodd" d="M321.742 140.097l3.457-.411c-.088-.694-.176-1.399-.273-2.093l-3.438.557c.087.646.175 1.291.254 1.947zm.693 7.345l3.467-.234c-.048-.714-.107-1.419-.156-2.123l-3.467.264c.058.695.107 1.389.156 2.093zM320.13 130.1l3.448-.733c-.137-.695-.196-.871-.332-1.565l-3.39.812c.127.596.157.89.274 1.496v-.01zm-.596-3.071l3.399-.753c-.107-.489-.215-.968-.322-1.457l-3.38.811c.108.47.205.93.313 1.399h-.01zm-8.859 96.59a149.366 149.366 0 003.204-6.789l-3.145-1.496a139.293 139.293 0 01-3.107 6.592l3.048 1.683v.01zm-38.289 43.105l2.198 2.72a166.243 166.243 0 004.405-3.884l-2.315-2.601c-1.289 1.193-2.959 2.621-4.288 3.765zm37.996-70.004l-3.321-1.027a124.942 124.942 0 01-3.204 9.087l3.253 1.232a130.676 130.676 0 003.272-9.282v-.01zm-61.262 86.065l1.69 3.042a143.105 143.105 0 006.466-3.785l-1.787-2.993a143.105 143.105 0 01-6.369 3.717v.019zM318.762 123.4l3.302-.87-.528-2.084-3.33 1.018c.185.714.371 1.222.547 1.936h.009zm-16.829 108.806l2.93 1.878a157.232 157.232 0 003.8-6.602l-3.057-1.672a137.049 137.049 0 01-3.683 6.396h.01zm-17.874 23.446l2.549 2.377a148.837 148.837 0 007.804-9.009l-2.627-2.288a146.244 146.244 0 01-7.717 8.93l-.009-.01zm-55.167 36.249l1.133 3.296c2.432-.87 4.825-1.799 7.189-2.797l-1.29-3.238a135.312 135.312 0 01-7.032 2.739zm45.145-42.294h-.01c.137-.127.254-.254.391-.371a130.74 130.74 0 0014.563-17.098l2.891 1.946a133.782 133.782 0 01-15.002 17.636l-.469.469-2.354-2.572-.01-.01zm41.365-137.876l3.273-1.173c-.196-.568-.342-.959-.547-1.536l-3.282 1.144c.205.587.351.978.547 1.565h.009zm-32.75-58.59c-.401-.39-.791-.772-1.192-1.153l-2.432 2.494c.391.371.772.753 1.153 1.125l2.461-2.465h.01zm-5.597-5.222a147.242 147.242 0 00-5.86-4.92l-2.159 2.738a135.622 135.622 0 015.753 4.842l2.266-2.65v-.01zm-18.372-13.86a153.044 153.044 0 00-6.554-3.932l-1.651 3.061a143.757 143.757 0 016.476 3.893l1.729-3.022zM237.37 274.96l1.397 3.189a134.831 134.831 0 0021.605-12.569l-2.012-2.846a130.949 130.949 0 01-20.99 12.216v.01zm33.932-18.066l-2.373-2.553a133.444 133.444 0 01-8.283 6.72l2.11 2.768a135.255 135.255 0 008.536-6.935h.01zm3.126-190.89l2.481-2.435-.049-.05a135.438 135.438 0 00-10.617-9.438l-2.11 2.768a132.433 132.433 0 0110.285 9.145l.01.01zm37.214 36.005l3.253-1.389c-.147-.343-.499-1.047-.645-1.39l-3.155 1.468c.186.43.371.871.557 1.301l-.01.01zm-21.645-41.081c-.332-.382-.664-.763-1.006-1.145l-2.432 2.504c.293.323.576.656.869.978l2.579-2.337h-.01zm22.964 35.447c-.352-.783-.665-1.418-1.026-2.191l-3.018 1.75c.303.636.596 1.272.889 1.908l3.155-1.467zm1.328 12.441l3.301-1.173c-.185-.509-.371-.988-.547-1.487l-3.203 1.369c.205.548.263.734.459 1.291h-.01zm-12.756-3.853l3.174-1.419a132.797 132.797 0 00-14.075-24.08l-2.852 1.994a128.8 128.8 0 0113.743 23.495l.01.01zm6.983-17.48l-3.028 1.722c-.322-.606-.664-1.193-.996-1.8l3.009-1.76c.341.616.683 1.222 1.015 1.839zm-.869 34l3.321-1.017a124.7 124.7 0 00-2.139-6.622l-3.282 1.144a126.28 126.28 0 012.1 6.495zM46.357 299.09l1.514 1.438 24.047-25.274-1.514-1.438L46.357 299.1v-.01zM6.26 157.615c0-1.457.02-2.915.059-4.362l-6.261-.284A184.41 184.41 0 000 157.625v.919l6.261.118v-1.047zm1.485-22.761l-6.242-.597c-.234 1.79-.44 3.59-.615 5.4l6.222.694c.185-1.849.4-3.678.635-5.507v.01zm8.644-35.72l-5.91-2.084a194.87 194.87 0 00-1.846 5.409l6.008 1.79a148.887 148.887 0 011.748-5.106v-.01zm-5.275 17.635l-6.104-1.428c-.42 1.77-.83 3.54-1.202 5.33l6.095 1.438c.371-1.79.782-3.57 1.202-5.35l.01.01zm-.82 78.151l-6.144 1.223a177.875 177.875 0 008.342 27.329l-6.056 2.426c7.306 18.408 17.484 35.388 29.967 50.412l7.315-6.162v-.03l2.384-2.024c-17.299-20.883-29.791-45.825-35.808-73.183v.009zm-1.729-8.988l-6.183.978c.215 1.301.45 2.601.684 3.893l6.163-1.057a164.215 164.215 0 01-.664-3.824v.01zm-1.739-14.281l-6.25.352c.146 1.849.322 3.688.517 5.517l6.241-.568a189.31 189.31 0 01-.508-5.281v-.02zm14.466-84.666L15.55 84.49a132.69 132.69 0 00-1.583 3.648l5.773 2.426a165.285 165.285 0 011.563-3.58h-.01zM221.888 294.2l.958 3.355c.634-.186 1.26-.382 1.885-.577l-1.104-3.306c-.576.185-1.143.352-1.729.528h-.01zM328.491 51.371c-.869-1.193-1.524-2.102-2.422-3.276l-5.011 3.756c.81 1.046 1.602 2.103 2.393 3.169l5.05-3.658-.01.01zm-21.498-24.365a174.87 174.87 0 00-4.22-3.863l-4.024 4.802a177.704 177.704 0 013.995 3.668l4.249-4.607zM292.664 14.78a166.556 166.556 0 00-4.699-3.482l-3.467 5.233a177.673 177.673 0 014.337 3.218l3.829-4.96v-.01zM25.142 78.974a170.204 170.204 0 00-1.641 3.277l-5.568-2.866a179.066 179.066 0 019.182-16.609l5.294 3.345c-.04.06-.079.128-.118.186l7.639 5.038a166.33 166.33 0 0124.096-30.293l3.516 3.375s-.039.049-.068.068C55.479 56.41 45.37 70.181 37.624 85.342l-4.288-2.299.02-.04-8.205-4.029h-.01zm295.046-38.108a143.768 143.768 0 00-3.809-4.303l-4.678 4.176a215.9 215.9 0 013.721 4.206l4.757-4.079h.009zM181.685 300.07v3.482h1.006l.03-3.482h-1.036zM47.88 255.564c.381.518.762 1.027 1.153 1.536l3.926-2.905c-.351-.46-.81-1.067-1.152-1.526l-3.927 2.895zm2.198 2.876l3.829-3.013c.547.695.986 1.281 1.543 1.976l-3.819 3.012a97.319 97.319 0 01-1.553-1.966v-.009zm178.521 20.208a129.693 129.693 0 01-12.991 4.157l.918 3.355a131.315 131.315 0 0013.313-4.275l-1.24-3.257v.02zM64.915 268.113c-.81-.841-1.612-1.692-2.403-2.553l-3.594 3.297c.81.88 1.621 1.741 2.451 2.601l3.546-3.335v-.01zm146.776 28.728l.684 3.413c.43-.088.859-.186 1.289-.283l-.693-3.414c-.42.098-.86.196-1.28.284zM30.992 227.433l4.425-2.044c.254.548.518 1.095.781 1.633l-4.415 2.054c-.263-.547-.527-1.105-.78-1.653l-.01.01zm3.888 7.708l4.288-2.318c.303.567.576 1.017.889 1.584l-4.328 2.377c-.273-.499-.585-1.135-.85-1.633v-.01zm2.197 3.961l4.161-2.543c.42.724.83 1.438 1.26 2.162l-4.19 2.523c-.39-.665-.83-1.486-1.22-2.142h-.01zm9.905 6.73l-4.093 2.641a154.574 154.574 0 01-2.774-4.314l4.17-2.523a146.045 146.045 0 002.707 4.196h-.01zm7.276 17.762c.381.46.84 1.057 1.231 1.516l3.77-3.159c-.449-.508-.81-.91-1.24-1.418l-3.76 3.071v-.01zM258.35 48.232l-2.012 2.846a131.543 131.543 0 00-21.527-11.962l1.523-3.13a134.148 134.148 0 0122.016 12.256v-.01zM26.89 217.975l4.552-1.731c.42 1.056.86 2.122 1.299 3.169l-4.523 1.819a121.399 121.399 0 01-1.338-3.257h.01zM277.124 4.089a209.03 209.03 0 00-4.738-2.817l-3.272 5.35c1.543.88 3.077 1.79 4.591 2.72l3.419-5.253zM85.71 48.466l2.217 2.68c.488-.43.967-.86 1.465-1.29l-2.285-2.632c-.47.411-.938.822-1.407 1.242h.01zm67.64-20.95l.781 3.393a133.81 133.81 0 0110.735-1.81l-.254-3.472a128.8 128.8 0 00-11.252 1.898l-.01-.01zm-2.227 256.13l-.801 3.394c2.246.528 4.512 1.007 6.798 1.418l.615-3.423a122.126 122.126 0 01-6.612-1.379v-.01zm18.822 19.435c.762.059 1.524.117 2.285.166l.313-3.472c-.752-.049-1.514-.108-2.256-.156l-.352 3.472.01-.01zm-5.021-.43c.704.088 1.143.058 1.856.137l.371-3.463c-.615-.059-1.24-.137-1.856-.205l-.371 3.541v-.01zm-10.109-1.614c.596.107.879.156 1.475.254l.537-3.423-1.436-.264-.576 3.433zm41.229-11.121l-.352-3.473a134.88 134.88 0 01-27.31.079l-.264 3.472c4.454.44 8.986.665 13.567.665 4.845 0 9.631-.254 14.349-.743h.01zm-77.369-.92c.655.323 1.309.636 1.963.939l1.485-3.159c-.732-.352-1.192-.558-1.924-.91l-1.534 3.13h.01zm218.939-131.381c0 86.593-69.809 156.803-155.929 156.803-28.638 0-55.167-7.561-78.13-21.04l-1.944 3.424c-6.056-3.424-8.156-4.94-13.909-9.029l5.48-7.678a152.63 152.63 0 01-15.462-13.028l-3.516 3.854-.674-.744c-29.332-28.502-47.763-68.282-47.763-112.552 0-57.67 30.963-108.073 77.085-135.304l-2.99-5.174c6.291-3.62 13.06-6.984 19.849-9.752l4.073 10.378a147.339 147.339 0 0115.149-5.429l-.899-3.12-.078.02-.625-1.996s.088-.02.127-.039l-.068-.254 5.411-1.223a158.127 158.127 0 018.644-1.966l1.651-.371v.058a155.554 155.554 0 0128.58-2.63c86.12 0 155.928 70.199 155.928 156.802l.01-.01zm-47.148 109.393c-27.017 27.162-64.016 44.27-105.001 45.258l-.136-3.209c63.615-1.525 117.434-42.851 137.897-100.208l3.243 1.193a154.832 154.832 0 01-35.993 56.966h-.01zm44.979-114.137l-3.448 1.105c.03 1.213.049 2.426.049 3.639 0 12.451-1.504 24.551-4.317 36.132l3.37.812a155.59 155.59 0 004.424-36.944c0-1.585-.029-3.159-.078-4.734v-.01zM181.685 2.896c42.489 0 80.934 17.313 108.771 45.306a155.228 155.228 0 0123.257 29.97l-2.989 1.653C284.459 35.673 236.501 6.104 181.685 6.104a149.5 149.5 0 00-27.544 2.553l-.615-3.17a153.621 153.621 0 0128.159-2.591zM103.897 24.12h-.01l1.651 2.837-1.641-2.847v.01zM64.329 257.638l-.04-.049c-22.728-26.967-36.432-61.857-36.432-99.984 0-26.526 6.642-51.498 18.343-73.32l2.843 1.957c-11.292 21.264-17.7 45.551-17.7 71.353 0 37.286 13.382 71.433 35.555 97.822l-2.56 2.211-.01.01zm14.807 7.874l6.173-6.759.02.019 1.475-1.477a141.34 141.34 0 01-9.855-10.622l-1.563 1.389.029.029-6.945 5.986c-21.86-26.028-35.046-59.685-35.046-96.452 0-41.267 16.595-78.612 43.437-105.657C94.1 34.606 115.55 21.51 139.529 14.35l2.49 8.666 1.016-.225c-.351.107-.713.195-1.055.303l.508 2.025a134.397 134.397 0 0114.183-3.443l-.352-2.064h-.01l-1.748-8.901a147.715 147.715 0 0127.144-2.504c40.945 0 78.003 16.716 104.844 43.761 26.832 27.035 43.436 64.39 43.436 105.657 0 12.285-1.484 24.218-4.258 35.642l-8.977-2.161s.01-.049.02-.069l-2.022-.508a135.904 135.904 0 01-4.112 13.791l1.983.665v-.019l8.663 3.179a149.48 149.48 0 01-34.733 55.127c-26.831 27.035-63.899 43.761-104.844 43.761-40.946 0-75.923-15.797-102.559-41.512l-.01-.009zM99.15 37.776l1.973 2.865c.83-.586 1.67-1.163 2.52-1.73l-1.895-2.916a204.17 204.17 0 00-2.598 1.78zm-6.115 4.548l2.071 2.807a83.83 83.83 0 011.104-.86l-1.905-2.925-1.27.978zm48.643 255.563c.898.255 1.65.46 2.549.705l.859-3.355c-.8-.216-1.592-.441-2.393-.666l-1.025 3.326.01-.01zm-16.029-5.702c.498.205.977.411 1.475.616l1.358-3.208c-.489-.206-.977-.401-1.465-.616l-1.368 3.198v.01zm13.05 4.802c.439.137.879.274 1.318.401l.967-3.345c-.42-.127-.84-.254-1.26-.391l-1.025 3.326v.009zm-3.185-1.066c.645.225.811.303 1.456.509l1.074-3.316c-.625-.205-.781-.274-1.397-.499l-1.123 3.296-.01.01zm22.085 5.615c.547.088 1.074.186 1.621.264l.547-3.443c-.557-.088-1.123-.186-1.68-.274l-.498 3.443.01.01zm90.359 17.322l2.256 5.849c1.7-.684 3.38-1.398 5.05-2.132l-2.569-5.722a200.08 200.08 0 01-4.747 2.005h.01zm16.39-7.649l2.852 5.576c1.68-.89 3.086-1.605 4.747-2.544l-2.979-5.575a188.515 188.515 0 01-4.611 2.543h-.009zm-33.561 13.596l1.631 6.055a195.773 195.773 0 005.274-1.604l-1.905-5.967a197.79 197.79 0 01-5 1.526v-.01zm139.87-167.542l5.343 3.472c0 38.646-11.789 74.543-32.008 104.366a187.054 187.054 0 01-10.735 14.31l-10.89-7.659a179.738 179.738 0 01-12.21 13.39 180.119 180.119 0 01-7.472 7.013l-3.975-4.851a186.823 186.823 0 007.042-6.612c31.744-31.515 51.367-75.022 51.367-123.097 0-29.891-7.579-58.012-20.951-82.592l-.264-.47-7.794 4.813c12.668 23.289 19.877 49.933 19.877 78.249h-4.864c0-31.945-9.436-61.69-25.689-86.68l4.112-2.612.01.02 7.531-5.185c-.118-.176-.225-.352-.352-.538a181.963 181.963 0 00-2.276-3.374l5.187-3.521c.81 1.163 1.602 2.337 2.383 3.52a177.793 177.793 0 017.589 12.667c13.88 25.49 21.772 54.687 21.772 85.694 0 9.204-.703 18.251-2.041 27.084l9.318-27.437-.01.03zM213 328.943l1.172 6.162c1.778-.323 3.546-.665 5.304-1.027l-1.329-6.123c-1.699.352-3.418.684-5.147 1.007v-.019zm78.501-35.545l3.976 4.851a173.26 173.26 0 002.998-2.445l-4.122-4.724c-.937.782-1.885 1.555-2.842 2.318h-.01zm-11.525 8.441l3.301 5.331a174.655 174.655 0 004.679-3.248l-3.761-5.008a140.599 140.599 0 01-4.219 2.925zm38.454-59.128l4.249 2.387c.557-.88 1.104-1.77 1.641-2.66l-4.268-2.348c-.537.88-1.075 1.751-1.622 2.612v.009zm11.028-9.35l-4.327-2.27a156.027 156.027 0 01-2.364 4.363l4.308 2.289a126.648 126.648 0 002.383-4.373v-.009zm-129.234 97.391l.762 6.231c1.279-.137 2.559-.274 3.829-.45l-.772-6.221c-1.27.157-2.549.303-3.829.44h.01zm117.64-78.455l-4.024-2.748a203 203 0 01-2.11 2.914l4.014 2.768c.713-.968 1.426-1.946 2.12-2.934zm8.458-13.234l-4.209-2.455a64.349 64.349 0 01-1.006 1.721l4.248 2.387c.323-.548.645-1.105.958-1.653h.009zm-135.201 92.403h-.059l-.498-9.155h.059l-.186-4.851c-2.891.156-5.812.224-8.752.224a163.445 163.445 0 01-40.965-5.193l-1.269 4.734c12.062 3.13 24.623 4.92 37.585 5.272l-.205 9.155h-.02l-.234 6.27a188.146 188.146 0 0018.841-.44l-.527-6.251c-1.25.088-2.51.177-3.77.235zm115.51-72.498l3.78 3.061c.743-.899 1.475-1.809 2.198-2.719l-3.79-3.061c-.723.909-1.455 1.819-2.198 2.719h.01zm-258.34-83.502c.312 2.308.683 4.607 1.123 6.876l3.418-.616c-.42-2.23-.79-4.48-1.103-6.74l-3.438.489v-.009zm6.544-50.804l-3.39-.812a131.026 131.026 0 00-2.861 13.753l3.447.518a125.494 125.494 0 012.804-13.459zm20.883-61.123l-2.579-2.337c-.293.332-.586.665-.87 1.007l2.56 2.357c.293-.342.596-.684.879-1.027h.01zm8.156-8.617L81.5 52.369c-.694.675-1.377 1.35-2.06 2.044l2.47 2.456c.645-.656 1.3-1.301 1.964-1.947zm2.266-2.142c-.293.274-.596.557-.88.831l-2.207-2.7c.274-.263.567-.528.84-.782l2.256 2.65h-.01zM59.748 86.046l-2.989-1.947c-.381.665-.762 1.33-1.133 1.996l3.047 1.682c.303-.538.782-1.203 1.085-1.731h-.01zm10.47-15.787l-2.725-2.162c-.37.5-.761.988-1.123 1.487l2.745 2.142c.371-.489.732-.978 1.113-1.467h-.01zm-3.662 4.959l-2.794-2.064a113.3 113.3 0 00-1.807 2.622l2.803 2.063c.596-.88 1.192-1.75 1.798-2.621zm7.17-9.331l-2.638-2.27c-.41.49-.508.597-.908 1.096l2.53 2.406c.439-.538.566-.684 1.015-1.222v-.01zM223.9 17.988a130.96 130.96 0 00-4.366-1.271l-.771 3.404c1.377.371 2.744.772 4.102 1.193l1.035-3.326zM86.354 63.676a130.189 130.189 0 00-6.827 7.297l2.666 2.24a125.162 125.162 0 016.613-7.052l.156-.157-2.442-2.484-.156.156h-.01zm130.123-47.752a141.499 141.499 0 00-11.926-2.435l-.518 3.443a138.62 138.62 0 0111.643 2.386l.801-3.394zm3.878 14.203A135.02 135.02 0 00192.771 25l-.302 3.473a131.715 131.715 0 0126.88 4.998l1.006-3.336v-.01zm-31.227-18.272a144.312 144.312 0 00-7.443-.186v3.483c2.481 0 4.943.058 7.385.186l.058-3.483zm-15.198 3.56l-.166-3.52a160.59 160.59 0 00-5.362.39l.351 3.405c1.846-.176 3.321-.167 5.177-.274zm59.67 19.397a145.16 145.16 0 00-6.525-2.504l-1.28 3.237a143.81 143.81 0 016.398 2.446l1.407-3.189v.01zM63.528 213.857a127.789 127.789 0 01-8.244-21.646l-3.35.968a131.346 131.346 0 008.459 22.214l3.125-1.536h.01zm-10.696 10.026a149.661 149.661 0 003.575 6.641l3.009-1.741a143.872 143.872 0 01-3.517-6.524l-3.076 1.624h.01zm-9.884-25.079l3.33-.988a143.46 143.46 0 003.741 11.141l-3.282 1.154a143.285 143.285 0 01-3.8-11.298l.01-.009zm34.83 43.399c2.081 2.494 4.25 4.91 6.515 7.248.03.039.06.058.088.098l2.52-2.407a127.385 127.385 0 01-6.436-7.169l-2.686 2.22v.01zm-33.355-51.459a151.24 151.24 0 001.054 4.147l-3.35.949a195.93 195.93 0 01-1.074-4.284l3.38-.812h-.01zm30.66-114.382a132.037 132.037 0 00-16.615 27.623l3.165 1.447a129.549 129.549 0 0116.175-26.908l-2.725-2.162zM60.373 237.03a146.159 146.159 0 004.2 6.172l2.794-2.084a139.656 139.656 0 01-4.152-6.113l-2.842 2.015v.01zM44.618 123.674l-3.321-1.076a90.772 90.772 0 00-.39 1.643l3.379.822.322-1.389h.01zm-2.833 52.584l-3.448.44a135.22 135.22 0 001.172 7.512l3.42-.646c-.44-2.415-.821-4.851-1.144-7.316v.01zm6.144-3.668l3.458-.401c-.547-4.783-.82-9.654-.82-14.584 0-4.294.205-8.529.615-12.715l-3.458-.392c-.42 4.314-.645 8.676-.645 13.097 0 5.067.284 10.065.84 14.985l.01.01zM234.195 21.588a139.052 139.052 0 00-5.342-1.976l-1.026 3.326c1.7.596 3.389 1.222 5.05 1.878l1.309-3.228h.009zm-186.53 91.268l-3.282-1.086c-.234.714-.459 1.428-.683 2.152l3.32 1.008c.186-.577.46-1.497.645-2.064v-.01zm-7.081 44.759c0-2.162.049-4.314.137-6.446l-3.468-.176a149.177 149.177 0 00-.088 10.74l3.478-.147c-.04-1.32-.059-2.641-.059-3.961v-.01zm2.237-25.412l-3.419-.616a148.5 148.5 0 00-1.153 7.561l3.458.401c.303-2.465.684-4.91 1.114-7.346z" fill="#94CCAA"/></svg>